<svg width="23" height="15" viewBox="0 0 23 15" fill="none" xmlns="http://www.w3.org/2000/svg">
<path d="M5.32217 1.50676C5.25634 1.4371 5.20488 1.35516 5.17072 1.2656C5.13656 1.17605 5.12037 1.08065 5.12308 0.984845C5.12579 0.889038 5.14735 0.794703 5.18651 0.707227C5.22568 0.61975 5.28169 0.540845 5.35136 0.475015C5.42102 0.409186 5.50297 0.357723 5.59252 0.323563C5.68207 0.289403 5.77747 0.273216 5.87328 0.275927C5.96908 0.278637 6.06342 0.300191 6.15089 0.339359C6.23837 0.378526 6.31728 0.43454 6.38311 0.504202L12.5853 7.0712C12.7134 7.20667 12.7847 7.38604 12.7847 7.57248C12.7847 7.75892 12.7134 7.93828 12.5853 8.07376L6.38311 14.6415C6.31771 14.7127 6.23882 14.7702 6.15102 14.8106C6.06323 14.851 5.96827 14.8736 5.87166 14.8771C5.77506 14.8805 5.67874 14.8647 5.58829 14.8306C5.49784 14.7965 5.41507 14.7447 5.34479 14.6784C5.27451 14.612 5.21812 14.5323 5.17888 14.444C5.13965 14.3556 5.11837 14.2604 5.11626 14.1637C5.11416 14.0671 5.13128 13.971 5.16662 13.881C5.20197 13.7911 5.25484 13.709 5.32217 13.6397L11.0515 7.57248L5.32217 1.50676Z" fill="black" fill-opacity="0.4"/>
<path d="M0.214504 1.50664C0.148675 1.43698 0.0972118 1.35503 0.0630521 1.26548C0.0288924 1.17593 0.0127051 1.08053 0.0154153 0.984722C0.0181255 0.888916 0.0396799 0.794581 0.0788475 0.707104C0.118015 0.619628 0.174029 0.540722 0.243691 0.474893C0.313353 0.409064 0.395299 0.357601 0.48485 0.323441C0.574401 0.289281 0.669803 0.273094 0.76561 0.275805C0.861416 0.278515 0.955751 0.300069 1.04323 0.339237C1.1307 0.378404 1.20961 0.434418 1.27544 0.50408L7.4776 7.07107C7.60568 7.20655 7.67705 7.38592 7.67705 7.57236C7.67705 7.75879 7.60568 7.93816 7.4776 8.07364L1.27544 14.6414C1.21004 14.7125 1.13116 14.77 1.04336 14.8105C0.95556 14.8509 0.860601 14.8735 0.763997 14.8769C0.667393 14.8804 0.57107 14.8646 0.480623 14.8305C0.390176 14.7964 0.307408 14.7446 0.237126 14.6783C0.166844 14.6119 0.110449 14.5322 0.071218 14.4439C0.0319866 14.3555 0.0107005 14.2603 0.00859584 14.1636C0.00649114 14.067 0.0236096 13.9709 0.0589576 13.8809C0.0943056 13.7909 0.147178 13.7089 0.214504 13.6395L5.94384 7.57236L0.214504 1.50664Z" fill="black" fill-opacity="0.1"/>
<path d="M10.4298 1.50676C10.364 1.4371 10.3125 1.35516 10.2784 1.2656C10.2442 1.17605 10.228 1.08065 10.2307 0.984845C10.2335 0.889038 10.255 0.794703 10.2942 0.707227C10.3333 0.61975 10.3894 0.540845 10.459 0.475015C10.5287 0.409186 10.6106 0.357723 10.7002 0.323563C10.7897 0.289403 10.8851 0.273216 10.9809 0.275927C11.0767 0.278637 11.1711 0.300191 11.2586 0.339359C11.346 0.378526 11.4249 0.43454 11.4908 0.504202L17.6929 7.0712C17.821 7.20667 17.8924 7.38604 17.8924 7.57248C17.8924 7.75892 17.821 7.93828 17.6929 8.07376L11.4908 14.6415C11.4254 14.7127 11.3465 14.7702 11.2587 14.8106C11.1709 14.851 11.0759 14.8736 10.9793 14.8771C10.8827 14.8805 10.7864 14.8647 10.696 14.8306C10.6055 14.7965 10.5227 14.7447 10.4525 14.6784C10.3822 14.612 10.3258 14.5323 10.2866 14.444C10.2473 14.3556 10.226 14.2604 10.2239 14.1637C10.2218 14.0671 10.2389 13.971 10.2743 13.881C10.3096 13.7911 10.3625 13.709 10.4298 13.6397L16.1592 7.57248L10.4298 1.50676Z" fill="black" fill-opacity="0.7"/>
<path d="M15.5375 1.50676C15.4717 1.4371 15.4202 1.35516 15.3861 1.2656C15.3519 1.17605 15.3357 1.08065 15.3384 0.984845C15.3411 0.889038 15.3627 0.794703 15.4018 0.707227C15.441 0.61975 15.497 0.540845 15.5667 0.475015C15.6364 0.409186 15.7183 0.357723 15.8078 0.323563C15.8974 0.289403 15.9928 0.273216 16.0886 0.275927C16.1844 0.278637 16.2787 0.300191 16.3662 0.339359C16.4537 0.378526 16.5326 0.43454 16.5984 0.504202L22.8006 7.0712C22.9287 7.20667 23 7.38604 23 7.57248C23 7.75892 22.9287 7.93828 22.8006 8.07376L16.5984 14.6415C16.533 14.7127 16.4542 14.7702 16.3664 14.8106C16.2786 14.851 16.1836 14.8736 16.087 14.8771C15.9904 14.8805 15.8941 14.8647 15.8036 14.8306C15.7132 14.7965 15.6304 14.7447 15.5601 14.6784C15.4898 14.612 15.4334 14.5323 15.3942 14.444C15.355 14.3556 15.3337 14.2604 15.3316 14.1637C15.3295 14.0671 15.3466 13.971 15.382 13.881C15.4173 13.7911 15.4702 13.709 15.5375 13.6397L21.2668 7.57248L15.5375 1.50676Z" fill="black"/>
</svg>
