<svg width="32" height="33" viewBox="0 0 32 33" fill="none" xmlns="http://www.w3.org/2000/svg">
<g clip-path="url(#clip0_1_5689)">
<path d="M12.1968 27.7052C14.3233 27.7052 16.0492 26.0398 16.0492 23.9879V20.2707H12.1968C10.0702 20.2707 8.34436 21.936 8.34436 23.9879C8.34436 26.0398 10.0702 27.7052 12.1968 27.7052Z" fill="#0ACF83"/>
<path d="M8.34436 16.5535C8.34436 14.5016 10.0702 12.8362 12.1968 12.8362H16.0492V20.2707H12.1968C10.0702 20.2707 8.34436 18.6054 8.34436 16.5535Z" fill="#A259FF"/>
<path d="M8.34433 9.11897C8.34433 7.06706 10.0702 5.40173 12.1967 5.40173H16.0492V12.8362H12.1967C10.0702 12.8362 8.34433 11.1709 8.34433 9.11897Z" fill="#F24E1E"/>
<path d="M16.0492 5.40173H19.9016C22.0281 5.40173 23.754 7.06706 23.754 9.11897C23.754 11.1709 22.0281 12.8362 19.9016 12.8362H16.0492V5.40173Z" fill="#FF7262"/>
<path d="M23.754 16.5535C23.754 18.6054 22.0281 20.2707 19.9016 20.2707C17.7751 20.2707 16.0492 18.6054 16.0492 16.5535C16.0492 14.5016 17.7751 12.8362 19.9016 12.8362C22.0281 12.8362 23.754 14.5016 23.754 16.5535Z" fill="#1ABCFE"/>
</g>
<defs>
<clipPath id="clip0_1_5689">
<rect width="15.4127" height="22.3034" fill="white" transform="translate(8.34282 5.40173)"/>
</clipPath>
</defs>
</svg>
